<svg width="16" height="16" viewBox="0 0 16 16" fill="none" xmlns="http://www.w3.org/2000/svg">
<g clip-path="url(#clip0_6801_28693)">
<path d="M8.49967 7.33203C8.49967 7.05589 8.27582 6.83203 7.99967 6.83203C7.72353 6.83203 7.49967 7.05589 7.49967 7.33203V11.332C7.49967 11.6082 7.72353 11.832 7.99967 11.832C8.27582 11.832 8.49967 11.6082 8.49967 11.332V7.33203Z" fill="#6C7080"/>
<path fill-rule="evenodd" clip-rule="evenodd" d="M7.99967 0.832031C4.04163 0.832031 0.833008 4.04066 0.833008 7.9987C0.833008 11.9567 4.04163 15.1654 7.99967 15.1654C11.9577 15.1654 15.1663 11.9567 15.1663 7.9987C15.1663 4.04066 11.9577 0.832031 7.99967 0.832031ZM1.83301 7.9987C1.83301 4.59294 4.59392 1.83203 7.99967 1.83203C11.4054 1.83203 14.1663 4.59294 14.1663 7.9987C14.1663 11.4045 11.4054 14.1654 7.99967 14.1654C4.59392 14.1654 1.83301 11.4045 1.83301 7.9987Z" fill="#6C7080"/>
<path d="M8.66634 5.33203C8.66634 5.70022 8.36786 5.9987 7.99967 5.9987C7.63148 5.9987 7.333 5.70022 7.333 5.33203C7.333 4.96384 7.63148 4.66536 7.99967 4.66536C8.36786 4.66536 8.66634 4.96384 8.66634 5.33203Z" fill="#6C7080"/>
</g>
<defs>
<clipPath id="clip0_6801_28693">
<rect width="16" height="16" fill="white"/>
</clipPath>
</defs>
</svg>
